<svg xmlns="http://www.w3.org/2000/svg" width="30.003" height="29.998" viewBox="0 0 30.003 29.998">
  <g id="Learn_More_arrow" data-name="Learn More arrow" transform="translate(-296.998 -0.002)">
    <path id="Subtraction_51" data-name="Subtraction 51" d="M10934,18642a15,15,0,1,1,10.605-4.393A14.908,14.908,0,0,1,10934,18642Zm3.7-16.58v0l-.028,7.283a1,1,0,0,0,1,1h.02a.955.955,0,0,0,.692-.291,1.008,1.008,0,0,0,.294-.7l.033-9.7a1.03,1.03,0,0,0-.29-.711,1.014,1.014,0,0,0-.716-.295l-9.7.037a1,1,0,1,0,0,2h.007l7.275-.023-7.678,7.674a.983.983,0,0,0-.291.705.994.994,0,0,0,.291.707,1,1,0,0,0,.711.293.991.991,0,0,0,.707-.293l7.676-7.676Z" transform="translate(-10622 -18612)" fill="#b4fc53"/>
  </g>
</svg>
