<svg xmlns="http://www.w3.org/2000/svg" width="30.002" height="30.002" viewBox="0 0 30.002 30.002">
  <path id="arrow" d="M11629,12519a15,15,0,1,1,10.605-4.394A14.909,14.909,0,0,1,11629,12519Zm3.694-16.583v0l-.028,7.281a1,1,0,0,0,1,1h.019a.979.979,0,0,0,.694-.293,1.011,1.011,0,0,0,.292-.7l.034-9.7a1.018,1.018,0,0,0-.292-.713,1.008,1.008,0,0,0-.713-.292l-9.7.034a1,1,0,0,0-.007,2h.013l7.273-.025-7.675,7.676a1,1,0,0,0,.709,1.706.986.986,0,0,0,.7-.292l7.677-7.678Z" transform="translate(-11613.998 -12488.999)" fill="#b4fc53"/>
</svg>
