<?xml version="1.0" encoding="utf-8"?>
<!-- Generator: Adobe Illustrator 21.0.0, SVG Export Plug-In . SVG Version: 6.00 Build 0)  -->
<svg version="1.1" id="Capa_2" xmlns="http://www.w3.org/2000/svg" xmlns:xlink="http://www.w3.org/1999/xlink" x="0px" y="0px"
	 viewBox="0 0 24.4 24.4" style="enable-background:new 0 0 24.4 24.4;" xml:space="preserve">
<style type="text/css">
	.st0{fill:#EC519D;}
</style>
<path class="st0" d="M-0.2-0.2v24.7h24.8V-0.2H-0.2z M18.7,10.8l-6.6,6.6c-0.3,0.3-0.7,0.4-1.1,0.4s-0.8-0.1-1.1-0.4c0,0,0,0,0,0
	c0,0,0,0,0,0l-4-4c-0.6-0.6-0.6-1.5,0-2.1c0.6-0.6,1.5-0.6,2.1,0l2.9,2.9l5.5-5.5c0.6-0.6,1.5-0.6,2.1,0
	C19.3,9.3,19.3,10.3,18.7,10.8z"/>
</svg>
