<?xml version="1.0" encoding="utf-8"?>
<!-- Generator: Adobe Illustrator 26.0.0, SVG Export Plug-In . SVG Version: 6.00 Build 0)  -->
<svg version="1.1" id="Capa_1" xmlns="http://www.w3.org/2000/svg" xmlns:xlink="http://www.w3.org/1999/xlink" x="0px" y="0px"
	 viewBox="0 0 413.4 414.7" style="enable-background:new 0 0 413.4 414.7;" xml:space="preserve">
<g>
	<path d="M413.4,57.8V0h-70.1c-15.8,0-31.6,0-47.4,0C225,0,154.2,0,83.4,0c-15.7,0-31.3,0-47,0H0v35.8c0,7.3,0,14.6,0,22h0v356.8
		h83.4v0c56.8,0,113.5,0,170.3,0h159.7v-57.8C413.4,257.2,413.4,157.5,413.4,57.8z M233.6,119.9H277v174.9h-43.4V119.9z
		 M136.4,120.1h43.4v174.8h-43.4V120.1z"/>
</g>
</svg>
