<svg xmlns="http://www.w3.org/2000/svg" id="LocanceLogo-Final_Horizontal-White" width="172.59" height="40" viewBox="0 0 172.59 40">
  <g id="Group_141264" data-name="Group 141264">
    <path id="Path_186105" data-name="Path 186105" d="M16.122,40,4.49,27.452a16.249,16.249,0,1,1,28.019-11.2c0,5.371-3.108,9.472-5.814,12.444L16.118,40Zm.136-37.831A14.072,14.072,0,0,0,6.07,25.966L16.128,36.818,25.1,27.229c2.434-2.674,5.241-6.348,5.241-10.974A14.1,14.1,0,0,0,16.254,2.166Z" fill="#fff"/>
    <g id="Group_141263" data-name="Group 141263" transform="translate(4.545 4.39)">
      <path id="Path_186106" data-name="Path 186106" d="M36.892,28.882A11.715,11.715,0,1,0,17.284,33.34l3.344-2.923a7.084,7.084,0,1,1,12.211-4.885L36.9,28.879Z" transform="translate(-14.04 -13.56)" fill="#3973B7"/>
      <path id="Path_186107" data-name="Path 186107" d="M46.823,65.421,37.671,75.561l-2.133-2.282-3.668-3.9,3.2-3.05,2.661,2.748,6.008-6.42Z" transform="translate(-26.098 -46.765)" fill="#8DC63F"/>
    </g>
  </g>
  <g id="Group_141265" data-name="Group 141265" transform="translate(38.135 8.789)">
    <path id="Path_186108" data-name="Path 186108" d="M117.8,27.15h2.273V47.169H131v2.085H117.8Z" transform="translate(-117.8 -27.15)" fill="#fff"/>
    <path id="Path_186109" data-name="Path 186109" d="M168.53,44.832V31.572c0-3,1.421-4.422,4.419-4.422h6.98c3,0,4.422,1.421,4.422,4.422v13.26c0,3-1.421,4.422-4.422,4.422h-6.98C169.948,49.254,168.53,47.833,168.53,44.832ZM179.8,47.169c1.641,0,2.273-.631,2.273-2.273V31.507c0-1.641-.631-2.273-2.273-2.273h-6.724c-1.641,0-2.273.631-2.273,2.273V44.894c0,1.641.631,2.273,2.273,2.273H179.8Z" transform="translate(-152.107 -27.15)" fill="#fff"/>
    <path id="Path_186110" data-name="Path 186110" d="M232.61,44.832V31.572c0-3,1.421-4.422,4.419-4.422H243.6c3,0,4.419,1.421,4.419,4.422v2.4h-2.273V31.507c0-1.641-.631-2.273-2.273-2.273h-6.316c-1.641,0-2.273.631-2.273,2.273V44.894c0,1.641.631,2.273,2.273,2.273h6.316c1.641,0,2.273-.631,2.273-2.273V42.43h2.273v2.4c0,2.875-1.421,4.422-4.419,4.422h-6.568c-3,0-4.419-1.547-4.419-4.422Z" transform="translate(-195.443 -27.15)" fill="#fff"/>
    <path id="Path_186111" data-name="Path 186111" d="M302.778,42.631h-9.285l-2.366,6.63H288.79l8.116-22.1h2.59l8.116,22.1h-2.464l-2.37-6.63Zm-.758-2.085-3.885-10.893-3.885,10.893h7.766Z" transform="translate(-233.436 -27.157)" fill="#fff"/>
    <path id="Path_186112" data-name="Path 186112" d="M359.213,27.15h2.525l11.619,18.692V27.15H375.5v22.1h-2.337l-11.81-18.977V49.254H359.21V27.15Z" transform="translate(-281.058 -27.15)" fill="#fff"/>
    <path id="Path_186113" data-name="Path 186113" d="M426.52,44.832V31.572c0-3,1.421-4.422,4.419-4.422h6.568c3,0,4.419,1.421,4.419,4.422v2.4h-2.273V31.507c0-1.641-.631-2.273-2.273-2.273h-6.316c-1.641,0-2.273.631-2.273,2.273V44.894c0,1.641.631,2.273,2.273,2.273h6.316c1.641,0,2.273-.631,2.273-2.273V42.43h2.273v2.4c0,2.875-1.421,4.422-4.419,4.422h-6.568c-3,0-4.419-1.547-4.419-4.422Z" transform="translate(-326.578 -27.15)" fill="#fff"/>
    <path id="Path_186114" data-name="Path 186114" d="M489.92,27.15h13.988v2.085H492.193v7.672h9.883v2.085h-9.883v8.177h11.716v2.085H489.92Z" transform="translate(-369.454 -27.15)" fill="#fff"/>
  </g>
</svg>