<svg xmlns="http://www.w3.org/2000/svg" width="59.154" height="46.75" viewBox="0 0 59.154 46.75">
  <g id="Group_109771" data-name="Group 109771" transform="translate(0.501 -1.542)">
    <g id="Group_109772" data-name="Group 109772" transform="translate(1 1.001)">
      <path id="Path_90713" data-name="Path 90713" d="M20.757,3.975C16.04,1.827,7.513,3.186,3.273,8.472.1,12.429.254,17.989,3.7,20.956s8.847,2.188,12.058-1.741S17.064,8.961,20.757,3.975Z" transform="translate(-1 -0.921)" fill="none" stroke="#492f91" stroke-linejoin="round" stroke-width="3"/>
      <path id="Path_90714" data-name="Path 90714" d="M19,27.185h6.936L23.624,41.058,39.809,24.873H32.873L35.185,11Z" transform="translate(-1.328 -2.113)" fill="#ec519d"/>
      <path id="Path_90715" data-name="Path 90715" d="M36,44.782c4.717,2.148,13.245.789,17.484-4.5,3.174-3.958,3.019-9.518-.429-12.484S44.208,25.613,41,29.542,39.694,39.8,36,44.782Z" transform="translate(0.395 -0.005)" fill="none" stroke="#492f91" stroke-linejoin="round" stroke-width="3"/>
    </g>
  </g>
</svg>
