<svg xmlns="http://www.w3.org/2000/svg" width="76.367" height="37.833" viewBox="0 0 76.367 37.833">
  <g id="Group_109701" data-name="Group 109701" transform="translate(620.239 1753.645)">
    <path id="Path_90672" data-name="Path 90672" d="M970.556,91.365a2.12,2.12,0,0,0,1.773-2.091l-.01-26.315a2.119,2.119,0,0,0-1.768-2.088l-6.733-1.131,0,5.9a2.118,2.118,0,0,1-2.412,2.1l-1.186-.166a2.119,2.119,0,0,1-1.824-2.1l0-6.643-8.052-1.353a2.822,2.822,0,0,0-3.289,2.783l.013,34.992,11.34-1.877V91.947a2.118,2.118,0,0,1,1.822-2.1l1.186-.167a2.118,2.118,0,0,1,2.414,2.1v.7Z" transform="translate(-1516.2 -1811.063)" fill="#fff"/>
    <path id="Path_90673" data-name="Path 90673" d="M903.511,85.087a1.128,1.128,0,0,1,1.046-1.125l7-.519a1.129,1.129,0,0,1,1.212,1.125v4.465a1.128,1.128,0,0,1-1.211,1.126l-7-.514a1.127,1.127,0,0,1-1.046-1.124Zm-2.362-22.872.01,27.821a2.119,2.119,0,0,0,1.848,2.1l8.094,1.041,5.422.7,9.9,1.274-.013-34.921a2.822,2.822,0,0,0-3.193-2.8l-6.709.891-5.422.719-8.1,1.075a2.118,2.118,0,0,0-1.84,2.1" transform="translate(-1498.041 -1811.051)" fill="#fff"/>
    <path id="Path_90675" data-name="Path 90675" d="M7.471,19.938l0-12.727a.952.952,0,0,1,.953-.953A.952.952,0,0,0,9.371,5.3a.936.936,0,0,0-.23-.614L5.407.331a.955.955,0,0,0-1.447,0L.231,4.689A.952.952,0,0,0,.954,6.261a.952.952,0,0,1,.952.952l0,12.706" transform="translate(-600.301 -1729.099) rotate(90)" fill="#fff"/>
    <path id="Path_90691" data-name="Path 90691" d="M6.324,10.354c0-4.656.071-10.071,0-10.029,0-.079-4.424,0-4.424,0-.1-.108,0,5.6,0,10.013" transform="translate(-601.192 -1751.891) rotate(90)" fill="#fff"/>
    <path id="Path_90692" data-name="Path 90692" d="M6.324,14.682c0-6.658.071-14.4,0-14.342,0-.113-4.424,0-4.424,0-.1-.155,0,8,0,14.319" transform="translate(-601.192 -1741.099) rotate(90)" fill="#fff"/>
  </g>
</svg>
