<svg xmlns="http://www.w3.org/2000/svg" width="62.153" height="62.385" viewBox="0 0 62.153 62.385">
  <g id="Group_109762" data-name="Group 109762" transform="translate(0.268 0.5)">
    <g id="Group_109763" data-name="Group 109763">
      <path id="Path_90699" data-name="Path 90699" d="M27.913,21a6.916,6.916,0,1,0,6.92,6.914A6.915,6.915,0,0,0,27.913,21Z" transform="translate(2.893 2.893)" fill="#ec519d"/>
      <path id="Path_90700" data-name="Path 90700" d="M27.324,15A12.324,12.324,0,1,0,39.647,27.32,12.323,12.323,0,0,0,27.324,15Z" transform="translate(3.485 3.485)" fill="none" stroke="#492f91" stroke-linecap="round" stroke-linejoin="round" stroke-width="3"/>
      <line id="Line_2015" data-name="Line 2015" y2="7" transform="translate(30.618 11)" fill="none" stroke="#492f91" stroke-linecap="round" stroke-linejoin="round" stroke-width="3"/>
      <line id="Line_2016" data-name="Line 2016" x2="7" transform="translate(43.618 31)" fill="none" stroke="#492f91" stroke-linecap="round" stroke-linejoin="round" stroke-width="3"/>
      <path id="Path_90701" data-name="Path 90701" d="M25.927,1a4.929,4.929,0,1,0,4.932,4.928A4.929,4.929,0,0,0,25.927,1Z" transform="translate(4.879 0.232)" fill="none" stroke="#492f91" stroke-linecap="round" stroke-linejoin="round" stroke-width="3"/>
      <path id="Path_90702" data-name="Path 90702" d="M19.162,39a6.162,6.162,0,1,0,6.162,6.158A6.16,6.16,0,0,0,19.162,39Z" transform="translate(3.021 9.062)" fill="none" stroke="#492f91" stroke-linecap="round" stroke-linejoin="round" stroke-width="3"/>
      <path id="Path_90703" data-name="Path 90703" d="M45.927,21a4.929,4.929,0,1,0,4.932,4.928A4.929,4.929,0,0,0,45.927,21Z" transform="translate(9.526 4.879)" fill="none" stroke="#492f91" stroke-linecap="round" stroke-linejoin="round" stroke-width="3"/>
      <path id="Path_90704" data-name="Path 90704" d="M5.927,30a4.929,4.929,0,1,0,4.932,4.928A4.929,4.929,0,0,0,5.927,30Z" transform="translate(0.232 6.971)" fill="none" stroke="#492f91" stroke-linecap="round" stroke-linejoin="round" stroke-width="3"/>
      <path id="Path_90705" data-name="Path 90705" d="M45.162,39a6.162,6.162,0,1,0,6.162,6.158A6.158,6.158,0,0,0,45.162,39Z" transform="translate(9.062 9.062)" fill="none" stroke="#492f91" stroke-linecap="round" stroke-linejoin="round" stroke-width="3"/>
      <ellipse id="Ellipse_1020" data-name="Ellipse 1020" cx="7" cy="7.5" rx="7" ry="7.5" transform="translate(1.618 1)" fill="none" stroke="#492f91" stroke-linecap="round" stroke-linejoin="round" stroke-width="3"/>
      <line id="Line_2017" data-name="Line 2017" x2="8.241" y2="8.241" transform="translate(13.855 13.855)" fill="none" stroke="#492f91" stroke-linecap="round" stroke-linejoin="round" stroke-width="3"/>
      <line id="Line_2018" data-name="Line 2018" y1="4.013" x2="8.916" transform="translate(10.654 35.866)" fill="none" stroke="#492f91" stroke-linecap="round" stroke-linejoin="round" stroke-width="3"/>
      <line id="Line_2019" data-name="Line 2019" y1="6.066" x2="2.234" transform="translate(24.313 42.375)" fill="none" stroke="#492f91" stroke-linecap="round" stroke-linejoin="round" stroke-width="3"/>
      <line id="Line_2020" data-name="Line 2020" x1="10.344" y1="10.344" transform="translate(39.521 39.521)" fill="none" stroke="#492f91" stroke-linecap="round" stroke-linejoin="round" stroke-width="3"/>
    </g>
  </g>
</svg>
