<svg xmlns="http://www.w3.org/2000/svg" width="69.537" height="50.733" viewBox="0 0 69.537 50.733">
  <g id="Group_109759" data-name="Group 109759" transform="translate(-0.339 -0.339)">
    <g id="Group_109760" data-name="Group 109760" transform="translate(1.839 1.839)">
      <path id="Path_90693" data-name="Path 90693" d="M29.8,1c1.857,2.349,13.5,7.232,18.8,7.232v24.59c0,6.493-17.744,15.658-18.8,15.911C28.744,48.48,11,39.315,11,32.822V8.232C16.306,8.232,27.947,3.349,29.8,1Z" transform="translate(3.465 -1)" fill="none" stroke="#492f91" stroke-linecap="round" stroke-linejoin="round" stroke-width="3"/>
      <path id="Path_90696" data-name="Path 90696" d="M11.15,9.8C8.6,11.323,3.58,12.984,1,12.984V28.895c0,4.647,10.919,11.391,11.572,11.572a22.234,22.234,0,0,0,2.893-1.773" transform="translate(-1 2.928)" fill="none" stroke="#492f91" stroke-linecap="round" stroke-linejoin="round" stroke-width="3"/>
      <path id="Path_90697" data-name="Path 90697" d="M41.315,9.8c2.554,1.526,7.569,3.187,10.15,3.187V28.895c0,4.647-10.919,11.391-11.572,11.572A22.234,22.234,0,0,1,37,38.693" transform="translate(15.073 2.928)" fill="none" stroke="#492f91" stroke-linecap="round" stroke-linejoin="round" stroke-width="3"/>
      <path id="Path_90698" data-name="Path 90698" d="M22.916,1c1.177,1.489,8.554,4.583,11.916,4.583V21.166c0,4.115-11.244,9.922-11.916,10.083C22.244,31.088,11,25.28,11,21.166V5.583C14.362,5.583,21.739,2.489,22.916,1Z" transform="translate(10.353 7.742)" fill="#ec519d"/>
    </g>
  </g>
</svg>
