<svg xmlns="http://www.w3.org/2000/svg" width="68.936" height="66.937" viewBox="0 0 68.936 66.937">
  <g id="Group_109703" data-name="Group 109703" transform="translate(0 -2.003)">
    <g id="Group_109711" data-name="Group 109711" transform="translate(0 0.003)">
      <path id="Path_90676" data-name="Path 90676" d="M967.359,9.761V6.234a16.139,16.139,0,0,0,2.693.232,16.453,16.453,0,0,0,4.034-.5A1.082,1.082,0,0,0,974.9,4.92V1.08A1.076,1.076,0,0,0,973.558.035a14.181,14.181,0,0,1-7.012,0A1.084,1.084,0,0,0,965.2,1.08V9.761a9.715,9.715,0,0,0-7.6,5.321h17.363a9.715,9.715,0,0,0-7.6-5.321" transform="translate(-931.814 1.998)" fill="#fff"/>
      <path id="Path_90677" data-name="Path 90677" d="M556.622,662.64h3.308V650.714a2.154,2.154,0,0,0-2.154-2.154h-4.386v-3.231a2.154,2.154,0,0,0-2.154-2.154h-1.077c-.016-.021-19.374.091-19.388,0h-1.077a2.154,2.154,0,0,0-2.154,2.154v3.231h-4.386A2.154,2.154,0,0,0,521,650.714V662.64h3.309V662.1a3.224,3.224,0,0,1,1.7-2.844l12.92-7a3.252,3.252,0,0,1,3.081,0l12.925,7A3.517,3.517,0,0,1,556.622,662.64Z" transform="translate(-505.997 -622.786)" fill="#fff"/>
      <path id="Path_90678" data-name="Path 90678" d="M18.311,1560.02H1.077A1.08,1.08,0,0,0,0,1561.1v24.774a1.08,1.08,0,0,0,1.077,1.077H18.5a3.26,3.26,0,0,1-.188-1.077Zm-13.464,21a1.077,1.077,0,1,1-2.154,0v-2.154a1.077,1.077,0,1,1,2.154,0Zm0-6.463a1.077,1.077,0,1,1-2.154,0v-2.154a1.077,1.077,0,1,1,2.154,0Zm0-6.463a1.077,1.077,0,1,1-2.154,0v-2.154a1.077,1.077,0,1,1,2.154,0Zm5.386,12.925a1.077,1.077,0,1,1-2.154,0v-2.154a1.077,1.077,0,1,1,2.154,0Zm0-6.463a1.077,1.077,0,1,1-2.154,0v-2.154a1.077,1.077,0,1,1,2.154,0Zm0-6.463a1.077,1.077,0,1,1-2.154,0v-2.154a1.077,1.077,0,1,1,2.154,0Zm5.386,12.925a1.077,1.077,0,1,1-2.154,0v-2.154a1.077,1.077,0,1,1,2.154,0Zm0-6.463a1.077,1.077,0,1,1-2.154,0v-2.154a1.077,1.077,0,1,1,2.154,0Zm0-6.463a1.077,1.077,0,1,1-2.154,0v-2.154a1.077,1.077,0,1,1,2.154,0Z" transform="translate(0 -1518.012)" fill="#fff"/>
      <path id="Path_90679" data-name="Path 90679" d="M1889.346,1560.02h-16.157v25.851a3.252,3.252,0,0,1-.189,1.077h17.423a1.08,1.08,0,0,0,1.077-1.077v-23.7a2.154,2.154,0,0,0-2.154-2.154m-11.31,21a1.077,1.077,0,1,1-2.154,0v-2.154a1.077,1.077,0,0,1,2.154,0Zm0-6.463a1.077,1.077,0,1,1-2.154,0v-2.154a1.077,1.077,0,1,1,2.154,0Zm0-6.463a1.077,1.077,0,0,1-2.154,0v-2.154a1.077,1.077,0,0,1,2.154,0Zm5.385,12.925a1.077,1.077,0,1,1-2.154,0v-2.154a1.077,1.077,0,1,1,2.154,0Zm0-6.463a1.077,1.077,0,1,1-2.154,0v-2.154a1.077,1.077,0,1,1,2.154,0Zm0-6.463a1.077,1.077,0,1,1-2.154,0v-2.154a1.077,1.077,0,1,1,2.154,0Zm5.386,12.925a1.077,1.077,0,1,1-2.154,0v-2.154a1.077,1.077,0,1,1,2.154,0Zm0-6.463a1.077,1.077,0,1,1-2.154,0v-2.154a1.077,1.077,0,1,1,2.154,0Zm0-6.463a1.077,1.077,0,1,1-2.154,0v-2.154a1.077,1.077,0,1,1,2.154,0Z" transform="translate(-1822.564 -1518.012)" fill="#fff"/>
      <path id="Path_90680" data-name="Path 90680" d="M787.44,1167.135l-12.925-7a1.074,1.074,0,0,0-1.023,0l-12.925,7a1.077,1.077,0,0,0-.566.948v28.544a1.08,1.08,0,0,0,1.077,1.077h4.309v-20.465a1.077,1.077,0,0,1,1.077-1.077h3.231a1.077,1.077,0,0,1,1.077,1.077V1197.7h6.463v-20.465a1.077,1.077,0,0,1,1.077-1.077h3.231a1.077,1.077,0,0,1,1.077,1.077V1197.7h4.309a1.08,1.08,0,0,0,1.077-1.077v-28.544a1.077,1.077,0,0,0-.566-.948m-21.516,4.179,8.078-4.308,8.078,4.308Z" transform="translate(-739.535 -1128.768)" fill="#fff"/>
    </g>
  </g>
</svg>
