<svg xmlns="http://www.w3.org/2000/svg" width="94.54" height="105.3" viewBox="0 0 94.54 105.3">
  <g id="Logo-ProductSuite" transform="translate(-207.795 -733.018)">
    <g id="Group_110160" data-name="Group 110160" transform="translate(207.795 733.018)">
      <g id="Group_110159" data-name="Group 110159" transform="translate(0 0)">
        <g id="Group_110158" data-name="Group 110158">
          <g id="Group_110157" data-name="Group 110157">
            <path id="Path_90287" data-name="Path 90287" d="M73.33,0a11.67,11.67,0,0,1,9.9,5.718l20.553,35.834a11.5,11.5,0,0,1,0,11.436L83.225,88.822a11.67,11.67,0,0,1-9.9,5.718H31.971A11.461,11.461,0,0,1,22.2,88.822L1.522,52.988a11.5,11.5,0,0,1,0-11.436L22.2,5.718A11.461,11.461,0,0,1,31.971,0ZM65.971,81.833a11.671,11.671,0,0,0,9.9-5.718L89.188,52.988a11.5,11.5,0,0,0,0-11.436L75.867,18.425a11.65,11.65,0,0,0-6.217-5.083,11.773,11.773,0,0,0-3.679-.635H39.329a11.67,11.67,0,0,0-9.9,5.718L16.239,41.552a10.916,10.916,0,0,0,0,11.436L29.433,76.115a11.67,11.67,0,0,0,9.9,5.718Z" transform="translate(94.54 0) rotate(90)" fill="#2474bb" fill-rule="evenodd"/>
            <path id="Path_90288" data-name="Path 90288" d="M0,0A12.468,12.468,0,0,1,3.605.588h0A12.468,12.468,0,0,0,0,0Z" transform="translate(81.782 65.979) rotate(90)" fill="rgba(36,116,187,0.61)" fill-rule="evenodd"/>
            <path id="Path_90289" data-name="Path 90289" d="M0,94.54H38.822a11.67,11.67,0,0,0,9.9-5.718L69.27,52.988a11.5,11.5,0,0,0,0-11.436L48.717,5.718A11.67,11.67,0,0,0,38.822,0H34.635c.381,4.7.508,9.149.508,13.342a11.65,11.65,0,0,1,6.217,5.083L54.68,41.552a11.5,11.5,0,0,1,0,11.436L41.359,76.115a11.671,11.671,0,0,1-9.9,5.718H12.814A100.671,100.671,0,0,1,0,94.54Z" transform="translate(94.54 34.508) rotate(90)" fill-rule="evenodd"/>
            <path id="Path_90290" data-name="Path 90290" d="M0,0A12.468,12.468,0,0,1,3.605.588h0A12.468,12.468,0,0,0,0,0Z" transform="translate(81.782 65.979) rotate(90)" fill="rgba(255,255,255,0.61)" fill-rule="evenodd"/>
            <path id="Path_90291" data-name="Path 90291" d="M.965,19.319l17.09-1.541A1.906,1.906,0,0,0,19.618,16.7L26.566,1.688A1.187,1.187,0,0,0,25.377.006L7.867,1.571A2.177,2.177,0,0,0,6.048,2.925L.056,18.1a.908.908,0,0,0,.909,1.214Z" transform="matrix(-0.09, 0.996, -0.996, -0.089, 72.4, 33.861)" fill="#2474bb"/>
            <path id="Path_90292" data-name="Path 90292" d="M.965,19.319l17.09-1.541A1.906,1.906,0,0,0,19.618,16.7L26.566,1.688A1.187,1.187,0,0,0,25.377.006L7.867,1.571A2.177,2.177,0,0,0,6.048,2.925L.056,18.1a.908.908,0,0,0,.909,1.214Z" transform="matrix(-0.09, 0.996, -0.996, -0.089, 63.121, 39.055)"/>
            <path id="Path_90293" data-name="Path 90293" d="M.965,19.319l17.09-1.541A1.906,1.906,0,0,0,19.618,16.7L26.566,1.688A1.187,1.187,0,0,0,25.377.006L7.867,1.571A2.177,2.177,0,0,0,6.048,2.925L.056,18.1a.908.908,0,0,0,.909,1.214Z" transform="matrix(-0.09, 0.996, -0.996, -0.089, 54.59, 43.588)" fill="#2474bb"/>
            <path id="Path_90294" data-name="Path 90294" d="M.965,19.319l17.09-1.541A1.906,1.906,0,0,0,19.618,16.7L26.566,1.688A1.187,1.187,0,0,0,25.377.006L7.867,1.571A2.177,2.177,0,0,0,6.048,2.925L.056,18.1a.908.908,0,0,0,.909,1.214Z" transform="matrix(-0.09, 0.996, -0.996, -0.089, 43.701, 47.923)"/>
          </g>
        </g>
      </g>
    </g>
  </g>
</svg>
