<svg xmlns="http://www.w3.org/2000/svg" xmlns:xlink="http://www.w3.org/1999/xlink" width="67.634" height="75.521" viewBox="0 0 67.634 75.521">
  <defs>
    <linearGradient id="linear-gradient" y1="0.5" x2="1" y2="0.5" gradientUnits="objectBoundingBox">
      <stop offset="0" stop-color="#2474bb"/>
      <stop offset="1" stop-color="#002f87"/>
    </linearGradient>
  </defs>
  <g id="Icon-EnhanceSafety" transform="translate(-673 -422.166)">
    <path id="Path_91057" data-name="Path 91057" d="M52.592,0a8.374,8.374,0,0,1,7.1,4.091l14.74,25.635a8.21,8.21,0,0,1,0,8.182L59.689,63.543a8.374,8.374,0,0,1-7.1,4.091H22.929a8.224,8.224,0,0,1-7.006-4.091L1.092,37.908a8.209,8.209,0,0,1,0-8.182L15.923,4.091A8.224,8.224,0,0,1,22.929,0Z" transform="translate(740.634 422.166) rotate(90)" fill-rule="evenodd" fill="url(#linear-gradient)"/>
    <g id="Group_122969" data-name="Group 122969" transform="translate(682 438.488)">
      <path id="Path_90449" data-name="Path 90449" d="M711.178,324.921h1.428v4.461a1.309,1.309,0,0,0,2.617,0v-4.461h1.428a1.047,1.047,0,0,0,.823-1.693l-2.736-3.488a1.085,1.085,0,0,0-1.647,0l-2.736,3.488a1.047,1.047,0,0,0,.823,1.693" transform="translate(-689.083 -319.361)" fill="#fff"/>
      <path id="Path_90450" data-name="Path 90450" d="M678.243,345.548l-3.154-3.154,1.009-1.009a1.047,1.047,0,0,0-.615-1.78l-4.4-.532a1.068,1.068,0,0,0-.866.3,1.046,1.046,0,0,0-.3.866l.532,4.4a1.046,1.046,0,0,0,1.779.614l1.01-1.01,3.154,3.154a1.309,1.309,0,0,0,1.851-1.851" transform="translate(-662.919 -332.18)" fill="#fff"/>
      <path id="Path_90451" data-name="Path 90451" d="M753.362,345.487a1.047,1.047,0,0,0,1.779-.614l.532-4.4a1.048,1.048,0,0,0-1.165-1.166l-4.4.532a1.047,1.047,0,0,0-.614,1.78l1.01,1.01-3.154,3.154a1.309,1.309,0,1,0,1.851,1.851l3.154-3.154Z" transform="translate(-713.043 -332.331)" fill="#fff"/>
      <path id="Path_90452" data-name="Path 90452" d="M770.14,382.48l-3.488-2.737a1.047,1.047,0,0,0-1.693.824V382H760.5a1.309,1.309,0,0,0,0,2.617h4.461v1.427a1.048,1.048,0,0,0,1.693.824l3.488-2.736a1.047,1.047,0,0,0,0-1.648" transform="translate(-720.996 -358.495)" fill="#fff"/>
      <path id="Path_90453" data-name="Path 90453" d="M659.951,381.662H655.49v-1.427a1.047,1.047,0,0,0-1.693-.824l-3.488,2.736a1.047,1.047,0,0,0,0,1.648l3.488,2.737a1.047,1.047,0,0,0,1.693-.824V384.28h4.461a1.309,1.309,0,0,0,0-2.617" transform="translate(-649.908 -358.279)" fill="#fff"/>
      <path id="Path_90454" data-name="Path 90454" d="M711.841,372.281a18.708,18.708,0,0,0-1.843-.722v-2.953a6.638,6.638,0,0,0-13.275,0v2.953a18.672,18.672,0,0,0-1.843.722,1.642,1.642,0,0,0-.974,1.507v9.778a1.658,1.658,0,0,0,1.654,1.654h15.6a1.658,1.658,0,0,0,1.654-1.654v-9.778a1.642,1.642,0,0,0-.973-1.507m-8.123,8.438a2.341,2.341,0,1,1,2.341-2.341,2.341,2.341,0,0,1-2.341,2.341m2.47-10.051a20.4,20.4,0,0,0-5.643,0v-2.062a2.821,2.821,0,0,1,5.643,0Z" transform="translate(-678.529 -347.078)" fill="#fff"/>
    </g>
  </g>
</svg>
