<svg xmlns="http://www.w3.org/2000/svg" xmlns:xlink="http://www.w3.org/1999/xlink" width="67.634" height="75.521" viewBox="0 0 67.634 75.521">
  <defs>
    <linearGradient id="linear-gradient" y1="0.5" x2="1" y2="0.5" gradientUnits="objectBoundingBox">
      <stop offset="0" stop-color="#2474bb"/>
      <stop offset="1" stop-color="#002f87"/>
    </linearGradient>
  </defs>
  <g id="Icon-ConnectToTMS" transform="translate(-0.999 -160.166)">
    <path id="Path_91051" data-name="Path 91051" d="M52.592,0a8.374,8.374,0,0,1,7.1,4.091l14.74,25.635a8.21,8.21,0,0,1,0,8.182L59.689,63.543a8.374,8.374,0,0,1-7.1,4.091H22.929a8.224,8.224,0,0,1-7.006-4.091L1.092,37.908a8.209,8.209,0,0,1,0-8.182L15.923,4.091A8.224,8.224,0,0,1,22.929,0Z" transform="translate(68.633 160.166) rotate(90)" fill-rule="evenodd" fill="url(#linear-gradient)"/>
    <g id="Group_122970" data-name="Group 122970" transform="translate(16.523 177)">
      <path id="Path_90455" data-name="Path 90455" d="M136.756,137.6v-8.1h-2.017v8.1a3.188,3.188,0,1,0,2.017,0" transform="translate(-116.848 -103.838)" fill="#fff"/>
      <path id="Path_90456" data-name="Path 90456" d="M113.252,133.068l-2.52.9a1.008,1.008,0,0,0-.668.949V137.6a3.189,3.189,0,1,0,2.017,0V135.63l2.52-.9a1.008,1.008,0,0,0,.668-.949v-4.269h-2.017Z" transform="translate(-101.878 -103.838)" fill="#fff"/>
      <path id="Path_90457" data-name="Path 90457" d="M159.877,137.6V134.92a1.008,1.008,0,0,0-.668-.949l-2.52-.9v-3.559h-2.017v4.269a1.008,1.008,0,0,0,.668.949l2.52.9V137.6a3.188,3.188,0,1,0,2.017,0" transform="translate(-130.263 -103.838)" fill="#fff"/>
      <path id="Path_90458" data-name="Path 90458" d="M123.276,73.953a7.143,7.143,0,0,0-1.3.124,10.487,10.487,0,0,0-20.67-1.768c-.237-.022-.475-.037-.717-.037a7.978,7.978,0,0,0,0,15.957h22.684a7.137,7.137,0,0,0,0-14.275" transform="translate(-92.614 -64.242)" fill="#fff"/>
    </g>
  </g>
</svg>
