<svg xmlns="http://www.w3.org/2000/svg" xmlns:xlink="http://www.w3.org/1999/xlink" width="67.634" height="75.521" viewBox="0 0 67.634 75.521">
  <defs>
    <linearGradient id="linear-gradient" y1="0.5" x2="1" y2="0.5" gradientUnits="objectBoundingBox">
      <stop offset="0" stop-color="#2474bb"/>
      <stop offset="1" stop-color="#002f87"/>
    </linearGradient>
  </defs>
  <g id="Icon-GainVisibility" transform="translate(-0.999 -422.166)">
    <path id="Path_91055" data-name="Path 91055" d="M52.592,0a8.374,8.374,0,0,1,7.1,4.091l14.74,25.635a8.21,8.21,0,0,1,0,8.182L59.689,63.543a8.374,8.374,0,0,1-7.1,4.091H22.929a8.224,8.224,0,0,1-7.006-4.091L1.092,37.908a8.209,8.209,0,0,1,0-8.182L15.923,4.091A8.224,8.224,0,0,1,22.929,0Z" transform="translate(68.633 422.166) rotate(90)" fill-rule="evenodd" fill="url(#linear-gradient)"/>
    <g id="Group_122974" data-name="Group 122974" transform="translate(14.844 443.619)">
      <path id="Path_90469" data-name="Path 90469" d="M125.019,326.817H93.352a4.016,4.016,0,0,0-4.012,4.012v24.262a4.016,4.016,0,0,0,4.012,4.012h25.526l-.3-2.487H93.352a1.53,1.53,0,0,1-1.525-1.525V336.173h34.717v14.755l2.487,1.717V330.829a4.017,4.017,0,0,0-4.012-4.012m-29.744,6.1a1.422,1.422,0,1,1,0-2.844,1.422,1.422,0,0,1,0,2.844m4.19,0a1.422,1.422,0,1,1,1.429-1.429,1.425,1.425,0,0,1-1.429,1.429m4.2,0a1.422,1.422,0,1,1,0-2.844,1.422,1.422,0,0,1,0,2.844m19.138-.275H115.9a1.154,1.154,0,0,1,0-2.308h6.911a1.154,1.154,0,0,1,0,2.308" transform="translate(-89.34 -326.817)" fill="#fff"/>
      <path id="Path_90470" data-name="Path 90470" d="M106.212,373.085h5.235a1.525,1.525,0,0,0,1.523-1.523v-9.711a1.524,1.524,0,0,0-1.523-1.522h-5.235a1.524,1.524,0,0,0-1.522,1.522v9.711a1.524,1.524,0,0,0,1.522,1.523" transform="translate(-98.653 -347.147)" fill="#fff"/>
      <path id="Path_90471" data-name="Path 90471" d="M133.96,362.82h14.1a1.246,1.246,0,0,0,0-2.492h-14.1a1.246,1.246,0,0,0,0,2.492" transform="translate(-115.654 -347.147)" fill="#fff"/>
      <path id="Path_90472" data-name="Path 90472" d="M133.96,375.868h14.1a1.246,1.246,0,0,0,0-2.492h-14.1a1.246,1.246,0,0,0,0,2.492" transform="translate(-115.654 -355.063)" fill="#fff"/>
      <path id="Path_90473" data-name="Path 90473" d="M144.44,388.927H133.958a1.243,1.243,0,0,1,0-2.487h10.317a2.687,2.687,0,0,0-.027.811Z" transform="translate(-115.658 -362.988)" fill="#fff"/>
      <path id="Path_90474" data-name="Path 90474" d="M178.292,392.41l-9.3-6.447a.691.691,0,0,0-1.079.648l1.319,11.24a.69.69,0,0,0,1.167.415l2.342-2.279,1.961,3.266a.691.691,0,0,0,.948.237l1.072-.643a.691.691,0,0,0,.236-.948L175,394.632l3.113-1a.69.69,0,0,0,.183-1.225" transform="translate(-137.005 -362.623)" fill="#fff"/>
    </g>
  </g>
</svg>
