<svg width="120" height="120" viewBox="0 0 120 120" fill="none" xmlns="http://www.w3.org/2000/svg">
<g clip-path="url(#clip0_211_22)">
<path d="M120 0H0V120H120V0Z" fill="#101820"/>
<path d="M32.2162 99.9759L19.855 86.0236C19.6082 85.7433 19.47 85.3642 19.47 84.9691C19.47 84.574 19.6082 84.1951 19.855 83.9148L34.4704 67.4181C34.5722 67.3036 34.6924 67.2128 34.8253 67.1509C34.9582 67.0891 35.1013 67.0575 35.245 67.0578H47.9254C48.0693 67.0575 48.2113 67.0892 48.3443 67.1511C48.4772 67.213 48.5982 67.3039 48.7 67.4185C48.8018 67.5332 48.8826 67.6694 48.9378 67.8193C48.9929 67.9692 49.0218 68.13 49.0219 68.2923V82.6052C49.0212 82.9332 48.9047 83.2476 48.6991 83.4794L34.0845 99.9759C33.8365 100.255 33.5008 100.411 33.1508 100.411C32.8009 100.411 32.4642 100.255 32.2162 99.9759ZM30.9597 86.2074C30.9607 86.4533 31.026 86.6933 31.1472 86.8976C31.9037 88.0497 33.0042 88.8534 34.2455 89.1596V90.5338C34.2455 90.8616 34.3611 91.176 34.5665 91.4078C34.7718 91.6396 35.0497 91.77 35.3401 91.77C35.6306 91.77 35.9093 91.6396 36.1147 91.4078C36.3201 91.176 36.4357 90.8616 36.4357 90.5338V89.1724C37.2983 89.0572 38.0987 88.606 38.6982 87.8965C39.2976 87.1871 39.6585 86.2638 39.7196 85.2858C39.7196 83.0344 37.7946 81.2691 35.3383 81.2691C34.0488 81.2691 33.1517 80.4584 33.1517 79.727C33.1517 78.9955 34.0488 78.1816 35.3383 78.1816C35.796 78.1801 36.2482 78.297 36.6597 78.5233C37.0712 78.7495 37.4313 79.0792 37.7123 79.487C37.8138 79.6545 37.9496 79.7919 38.1083 79.8872C38.267 79.9826 38.4434 80.0331 38.6232 80.0346C38.767 80.0348 38.91 80.0031 39.0429 79.9412C39.1759 79.8792 39.2968 79.7885 39.3987 79.6738C39.5005 79.5591 39.5812 79.423 39.6364 79.273C39.6916 79.1231 39.7195 78.9624 39.7196 78.8C39.7208 78.5538 39.6552 78.313 39.5322 78.1097C38.7793 76.9568 37.6814 76.1516 36.4421 75.8436V74.4694C36.4421 74.1416 36.3265 73.8271 36.1211 73.5953C35.9157 73.3634 35.6379 73.2332 35.3474 73.2332C35.057 73.2332 34.7782 73.3634 34.5729 73.5953C34.3675 73.8271 34.2519 74.1416 34.2519 74.4694V75.8308C33.3891 75.9473 32.5897 76.3995 31.9903 77.1096C31.391 77.8197 31.0293 78.7433 30.9679 79.7217C30.9679 81.9731 32.8922 83.7383 35.3447 83.7383C36.6379 83.7383 37.5358 84.5521 37.5358 85.2836C37.5358 86.015 36.6379 86.8257 35.3447 86.8257C34.8881 86.8263 34.4375 86.7095 34.0269 86.4838C33.6164 86.2581 33.2564 85.9297 32.9752 85.5236C32.8448 85.3024 32.6554 85.1345 32.4339 85.0448C32.2123 84.955 31.9705 84.9482 31.7452 85.0253C31.52 85.1023 31.3229 85.2592 31.1828 85.4727C31.0428 85.6862 30.9676 85.945 30.9679 86.2107L30.9597 86.2074ZM42.9972 71.9992C42.9972 72.3656 43.094 72.7239 43.2743 73.0286C43.4546 73.3333 43.7106 73.5707 44.0105 73.711C44.3104 73.8513 44.6404 73.888 44.9588 73.8165C45.2772 73.7451 45.5696 73.5689 45.7992 73.3099C46.0288 73.0508 46.1857 72.7207 46.2491 72.3614C46.3126 72.002 46.28 71.6294 46.1559 71.2908C46.0318 70.9522 45.8212 70.6628 45.5514 70.4591C45.2816 70.2554 44.9643 70.1465 44.6396 70.1463C44.2044 70.1469 43.7878 70.3423 43.4801 70.6897C43.1723 71.037 42.9977 71.5079 42.9972 71.9992ZM57.2313 91.2567C56.7296 91.2567 56.2482 91.0318 55.8934 90.6314C55.5387 90.231 55.3401 89.6878 55.3401 89.1215V84.8259H54.1303C53.8821 84.8263 53.6354 84.7715 53.406 84.6646C53.1766 84.5577 52.968 84.4009 52.7924 84.203C52.6167 84.0051 52.4778 83.77 52.3827 83.5112C52.2875 83.2525 52.2383 82.9752 52.2382 82.695V62.9904C52.2381 62.2198 52.372 61.4568 52.6332 60.7449C52.8944 60.033 53.2781 59.3861 53.7608 58.8412C54.2435 58.2964 54.8164 57.8641 55.4471 57.5693C56.0779 57.2744 56.7535 57.1228 57.4362 57.123H73.7663C74.7239 57.123 75.6623 57.4219 76.4787 57.9868C77.2951 58.5517 77.9573 59.3604 78.3918 60.3235H81.8002C82.2416 60.3256 82.6694 60.1532 83.01 59.8363C83.3507 59.5194 83.5823 59.0779 83.6648 58.5883C83.7473 58.0988 83.6756 57.5921 83.4618 57.1561C83.248 56.7201 82.9056 56.3824 82.4943 56.2013L61.9529 47.0201L41.4115 56.2013C41.0009 56.3834 40.6596 56.7216 40.4467 57.1577C40.2337 57.5937 40.1618 58.1001 40.2446 58.5891C40.3273 59.0781 40.559 59.5191 40.8993 59.8358C41.2397 60.1525 41.6672 60.325 42.1083 60.3235H46.8088C47.31 60.3235 47.7905 60.5482 48.1449 60.9483C48.4993 61.3483 48.6982 61.8909 48.6982 62.4566C48.6982 63.0223 48.4993 63.5648 48.1449 63.9648C47.7905 64.3648 47.31 64.5896 46.8088 64.5896H42.1083C40.7888 64.5897 39.511 64.0705 38.4942 63.1211C37.4775 62.1718 36.7854 60.8518 36.5381 59.3887C36.2909 57.9256 36.5041 56.4111 37.1399 55.106C37.7756 53.8008 38.7945 52.7867 40.0214 52.2386L62.9963 41.9666C63.4755 41.7524 63.8936 41.3948 64.2062 40.9323C64.5188 40.4698 64.7139 39.92 64.7704 39.3418C64.8269 38.7636 64.743 38.1789 64.5272 37.6506C64.3114 37.1223 63.9722 36.6705 63.5459 36.3435C63.1196 36.0166 62.622 35.8271 62.1074 35.7952C61.5928 35.7632 61.0805 35.8901 60.625 36.1624C60.1696 36.4346 59.7879 36.8419 59.5221 37.3403C59.2564 37.8387 59.1161 38.4094 59.1161 38.9911C59.1051 39.5484 58.9013 40.0788 58.5482 40.4686C58.1951 40.8584 57.7207 41.0767 57.2267 41.0767C56.7328 41.0767 56.2593 40.8584 55.9062 40.4686C55.5531 40.0788 55.3484 39.5484 55.3374 38.9911C55.3387 37.7528 55.6136 36.5344 56.1358 35.4454C56.6579 34.3564 57.411 33.431 58.3287 32.7525C59.2464 32.0741 60.2992 31.6639 61.3923 31.5589C62.4854 31.4539 63.5851 31.6573 64.5912 32.1509C65.5973 32.6444 66.4786 33.4127 67.1563 34.3864C67.8341 35.3601 68.2865 36.5088 68.4732 37.729C68.6599 38.9493 68.5745 40.2027 68.2254 41.3766C67.8762 42.5504 67.2744 43.6079 66.4732 44.4538L83.8861 52.2386C85.1131 52.7867 86.132 53.8008 86.7677 55.106C87.4035 56.4111 87.6167 57.9256 87.3694 59.3887C87.1222 60.8518 86.4301 62.1718 85.4133 63.1211C84.3966 64.0705 83.1188 64.5897 81.7992 64.5896H78.9643V89.1227C78.9641 89.6891 78.765 90.2321 78.4101 90.6325C78.0552 91.0329 77.574 91.2577 77.0722 91.2577L57.2313 91.2567Z" fill="white"/>
</g>
<defs>
<clipPath id="clip0_211_22">
<rect width="120" height="120" fill="white"/>
</clipPath>
</defs>
</svg>
