<svg xmlns="http://www.w3.org/2000/svg" width="73.618" height="66.175" viewBox="0 0 73.618 66.175"><g transform="translate(-3.453 -1.243)"><g transform="translate(-0.243)"><path d="M14084.038,1714.761l-13.2-13.2a1.415,1.415,0,0,1,0-1.995l15.607-15.607a1.168,1.168,0,0,1,.827-.341h13.541a1.169,1.169,0,0,1,1.171,1.168v13.541a1.173,1.173,0,0,1-.344.827l-15.607,15.607a1.413,1.413,0,0,1-1.994,0Zm-1.342-13.026a1.183,1.183,0,0,0,.2.653,5.61,5.61,0,0,0,3.309,2.14v1.3a1.169,1.169,0,0,0,2.339,0v-1.288a3.985,3.985,0,0,0,3.507-3.677c0-2.13-2.056-3.8-4.679-3.8-1.377,0-2.335-.767-2.335-1.459s.958-1.462,2.335-1.462a3.2,3.2,0,0,1,2.535,1.235,1.189,1.189,0,0,0,.973.518,1.169,1.169,0,0,0,1.171-1.168,1.147,1.147,0,0,0-.2-.653,5.594,5.594,0,0,0-3.3-2.144v-1.3a1.169,1.169,0,0,0-2.339,0v1.288a3.991,3.991,0,0,0-3.507,3.681c0,2.13,2.055,3.8,4.674,3.8,1.381,0,2.34.77,2.34,1.462s-.959,1.459-2.34,1.459a3.206,3.206,0,0,1-2.53-1.232,1.17,1.17,0,0,0-2.144.65Zm12.855-13.442a1.753,1.753,0,1,0,1.754-1.753A1.755,1.755,0,0,0,14095.552,1688.293Zm15.2,18.219a2.02,2.02,0,0,1-2.02-2.02v-4.064h-1.292a2.017,2.017,0,0,1-2.02-2.016v-18.642a5.55,5.55,0,0,1,5.551-5.551h17.438a5.544,5.544,0,0,1,4.94,3.028h3.639a2.019,2.019,0,0,0,.742-3.9l-21.936-8.686-21.936,8.686a2.02,2.02,0,0,0,.745,3.9h5.019a2.018,2.018,0,0,1,0,4.036h-5.019a6.055,6.055,0,0,1-2.229-11.685l24.534-9.718a3.028,3.028,0,1,0-4.143-2.815,2.018,2.018,0,0,1-4.035,0,7.065,7.065,0,1,1,11.891,5.168l18.595,7.365a6.055,6.055,0,0,1-2.229,11.685h-3.027v23.21a2.021,2.021,0,0,1-2.021,2.02Z" transform="translate(-14066.229 -1648.255)" fill="#fff"/><path d="M14085.035,1715.673a1.884,1.884,0,0,1-1.353-.561l-13.2-13.2a1.915,1.915,0,0,1,0-2.7l15.609-15.609a1.678,1.678,0,0,1,1.181-.487h13.541a1.672,1.672,0,0,1,1.671,1.668v13.541a1.683,1.683,0,0,1-.49,1.18l-15.607,15.607A1.9,1.9,0,0,1,14085.035,1715.673Zm2.236-31.555a.673.673,0,0,0-.474.194l-15.607,15.607a.928.928,0,0,0-.265.644.9.9,0,0,0,.265.644l13.2,13.2a.9.9,0,0,0,.644.265.9.9,0,0,0,.644-.265l15.607-15.607a.677.677,0,0,0,.2-.474v-13.541a.67.67,0,0,0-.671-.668Zm.1,23.373a1.669,1.669,0,0,1-1.667-1.668v-.905a6.166,6.166,0,0,1-3.22-2.246l-.007-.009a1.671,1.671,0,0,1,2.771-1.867,2.724,2.724,0,0,0,2.122,1.021c1.19,0,1.84-.633,1.84-.959s-.649-.962-1.84-.962c-2.9,0-5.174-1.888-5.174-4.3a3.843,3.843,0,0,1,1.13-2.707,5.178,5.178,0,0,1,2.377-1.368v-.894a1.669,1.669,0,0,1,3.339,0v.906a6.089,6.089,0,0,1,3.219,2.254,1.638,1.638,0,0,1,.288.933,1.671,1.671,0,0,1-3.056.933v0a2.723,2.723,0,0,0-2.122-1.017c-1.187,0-1.835.636-1.835.962s.647.959,1.835.959c2.9,0,5.179,1.889,5.179,4.3a3.842,3.842,0,0,1-1.13,2.707,5.171,5.171,0,0,1-2.377,1.366v.893A1.672,1.672,0,0,1,14087.37,1707.492Zm-4.061-5.383a5.087,5.087,0,0,0,3,1.93l.4.084v1.7a.669.669,0,0,0,1.339,0v-1.7l.4-.081a4.349,4.349,0,0,0,2.257-1.176,2.863,2.863,0,0,0,.849-2.011c0-1.851-1.836-3.3-4.179-3.3a3.534,3.534,0,0,1-1.964-.556,1.567,1.567,0,0,1,0-2.808,3.531,3.531,0,0,1,1.965-.558,3.7,3.7,0,0,1,2.946,1.451h0a.684.684,0,0,0,.561.3.67.67,0,0,0,.671-.668.641.641,0,0,0-.113-.368l-.007-.01a5.118,5.118,0,0,0-2.991-1.93l-.4-.085v-1.7a.669.669,0,0,0-1.339,0v1.7l-.4.081c-1.858.379-3.106,1.661-3.106,3.191,0,1.849,1.833,3.3,4.174,3.3a3.537,3.537,0,0,1,1.968.557,1.565,1.565,0,0,1,0,2.807,3.542,3.542,0,0,1-1.968.557,3.717,3.717,0,0,1-2.935-1.438l-.009-.012a.682.682,0,0,0-.56-.3.672.672,0,0,0-.671.671A.685.685,0,0,0,14083.31,1702.109Zm48.631,4.9h-21.189a2.522,2.522,0,0,1-2.52-2.52v-3.564h-.792a2.52,2.52,0,0,1-2.52-2.516v-18.642a6.058,6.058,0,0,1,6.051-6.051h17.438a6.024,6.024,0,0,1,5.237,3.028h3.342a1.519,1.519,0,0,0,.558-2.932l-21.751-8.613-21.752,8.613a1.52,1.52,0,0,0,.562,2.932h5.019a2.518,2.518,0,0,1,0,5.036h-5.019a6.555,6.555,0,0,1-2.413-12.65l24.533-9.718a2.528,2.528,0,1,0-3.458-2.35,2.518,2.518,0,0,1-5.035,0,7.565,7.565,0,1,1,13.269,4.978l17.9,7.09a6.555,6.555,0,0,1-2.413,12.65h-2.527v22.71A2.523,2.523,0,0,1,14131.94,1707.012Zm-20.97-32.293a5.057,5.057,0,0,0-5.051,5.051v18.642a1.52,1.52,0,0,0,1.52,1.516h1.792v4.564a1.521,1.521,0,0,0,1.52,1.52h21.189a1.522,1.522,0,0,0,1.521-1.52v-23.71h3.527a5.555,5.555,0,0,0,2.045-10.72l-19.331-7.656.579-.539a6.568,6.568,0,1,0-11.05-4.8,1.518,1.518,0,0,0,3.035,0,3.528,3.528,0,1,1,4.825,3.28l-24.532,9.718a5.555,5.555,0,0,0,2.045,10.72h5.019a1.518,1.518,0,0,0,0-3.036h-5.019a2.52,2.52,0,0,1-.931-4.862l22.121-8.759.184.073,21.936,8.686a2.519,2.519,0,0,1-.926,4.862h-3.944l-.14-.272a5.031,5.031,0,0,0-4.5-2.755Zm-13.665,15.827a2.253,2.253,0,1,1,2.253-2.253A2.256,2.256,0,0,1,14097.306,1690.547Zm0-3.507a1.253,1.253,0,1,0,1.253,1.253A1.255,1.255,0,0,0,14097.306,1687.04Z" transform="translate(-14066.229 -1648.255)" fill="rgba(0,0,0,0)"/></g></g></svg>