<svg xmlns="http://www.w3.org/2000/svg" xmlns:xlink="http://www.w3.org/1999/xlink" width="67.634" height="75.521" viewBox="0 0 67.634 75.521">
  <defs>
    <linearGradient id="linear-gradient" y1="0.5" x2="1" y2="0.5" gradientUnits="objectBoundingBox">
      <stop offset="0" stop-color="#2474bb"/>
      <stop offset="1" stop-color="#002f87"/>
    </linearGradient>
  </defs>
  <g id="Icon-TrackEverything" transform="translate(-1009 -160.166)">
    <path id="Path_91054" data-name="Path 91054" d="M52.592,0a8.374,8.374,0,0,1,7.1,4.091l14.74,25.635a8.21,8.21,0,0,1,0,8.182L59.689,63.543a8.374,8.374,0,0,1-7.1,4.091H22.929a8.224,8.224,0,0,1-7.006-4.091L1.092,37.908a8.209,8.209,0,0,1,0-8.182L15.923,4.091A8.224,8.224,0,0,1,22.929,0Z" transform="translate(1076.634 160.166) rotate(90)" fill-rule="evenodd" fill="url(#linear-gradient)"/>
    <g id="Group_122967" data-name="Group 122967" transform="translate(1026.247 182.25)">
      <path id="Path_90439" data-name="Path 90439" d="M990.4,90.324V87.1a2.929,2.929,0,0,0-2.933-2.933H967.644a2.929,2.929,0,0,0-2.932,2.933v26.244a2.93,2.93,0,0,0,2.932,2.933h19.822a2.93,2.93,0,0,0,2.933-2.933v-3.211a10.269,10.269,0,0,1,0-19.806" transform="translate(-964.712 -84.165)" fill="#fff"/>
      <path id="Path_90440" data-name="Path 90440" d="M1039.089,120.54a8.29,8.29,0,1,0-1.466,1.466l4.069,4.069a1.037,1.037,0,0,0,1.466-1.466Zm-12.741-5.07a6.2,6.2,0,1,1,6.2,6.2,6.211,6.211,0,0,1-6.2-6.2" transform="translate(-1004.139 -99.408)" fill="#fff"/>
      <path id="Path_90441" data-name="Path 90441" d="M1043.379,123.132l-2.575,3.073-1.223-1.266a1.037,1.037,0,0,0-1.491,1.441l2.023,2.094a1.037,1.037,0,0,0,.746.317h.036a1.036,1.036,0,0,0,.758-.37l3.315-3.956a1.037,1.037,0,0,0-1.59-1.332" transform="translate(-1013.092 -109.714)" fill="#fff"/>
    </g>
  </g>
</svg>
