<svg xmlns="http://www.w3.org/2000/svg" xmlns:xlink="http://www.w3.org/1999/xlink" width="67.634" height="75.521" viewBox="0 0 67.634 75.521">
  <defs>
    <linearGradient id="linear-gradient" y1="0.5" x2="1" y2="0.5" gradientUnits="objectBoundingBox">
      <stop offset="0" stop-color="#2474bb"/>
      <stop offset="1" stop-color="#002f87"/>
    </linearGradient>
  </defs>
  <g id="Icon-ReduceCosts" transform="translate(-673 -160)">
    <path id="Path_91053" data-name="Path 91053" d="M52.592,0a8.374,8.374,0,0,1,7.1,4.091l14.74,25.635a8.21,8.21,0,0,1,0,8.182L59.689,63.543a8.374,8.374,0,0,1-7.1,4.091H22.929a8.224,8.224,0,0,1-7.006-4.091L1.092,37.908a8.209,8.209,0,0,1,0-8.182L15.923,4.091A8.224,8.224,0,0,1,22.929,0Z" transform="translate(740.634 160) rotate(90)" fill-rule="evenodd" fill="url(#linear-gradient)"/>
    <g id="Group_122971" data-name="Group 122971" transform="translate(689 182)">
      <path id="Path_90459" data-name="Path 90459" d="M735.691,129.465H740.6a2.547,2.547,0,0,1,2.547,2.547v6.343A2.547,2.547,0,0,1,740.6,140.9h-4.914a2.547,2.547,0,0,1-2.547-2.547v-6.343a2.547,2.547,0,0,1,2.547-2.547" transform="translate(-709.531 -108.564)" fill="#fff"/>
      <path id="Path_90460" data-name="Path 90460" d="M670.8,84.058h4.914a2.547,2.547,0,0,1,2.547,2.547v22.867a2.547,2.547,0,0,1-2.547,2.547H670.8a2.547,2.547,0,0,1-2.547-2.547V86.605a2.547,2.547,0,0,1,2.547-2.547" transform="translate(-668.257 -79.681)" fill="#fff"/>
      <path id="Path_90461" data-name="Path 90461" d="M703.248,102.581H704.4a10.408,10.408,0,0,0,6.312,9.021v9.652a2.547,2.547,0,0,1-2.547,2.547h-4.914a2.547,2.547,0,0,1-2.547-2.547V105.128a2.547,2.547,0,0,1,2.547-2.547" transform="translate(-688.894 -91.463)" fill="#fff"/>
      <path id="Path_90462" data-name="Path 90462" d="M734.021,81.671a9.642,9.642,0,1,0-9.642,9.642,9.642,9.642,0,0,0,9.642-9.642m-5.339,4.315a1.174,1.174,0,0,1-.968.335l-4.919-.594a1.17,1.17,0,0,1-.687-1.989l1.062-1.062-3.224-3.223a1.35,1.35,0,0,1-.294-.44,1.459,1.459,0,0,1,2.127-2l3.526,3.525,1.128-1.128a1.17,1.17,0,0,1,1.989.687l.594,4.919a1.169,1.169,0,0,1-.334.968" transform="translate(-697.823 -72.029)" fill="#fff"/>
    </g>
  </g>
</svg>
