<svg xmlns="http://www.w3.org/2000/svg" xmlns:xlink="http://www.w3.org/1999/xlink" width="67.634" height="75.521" viewBox="0 0 67.634 75.521">
  <defs>
    <linearGradient id="linear-gradient" y1="0.5" x2="1" y2="0.5" gradientUnits="objectBoundingBox">
      <stop offset="0" stop-color="#2474bb"/>
      <stop offset="1" stop-color="#002f87"/>
    </linearGradient>
  </defs>
  <g id="Icon-IncreaseSpeedtoBilling" transform="translate(-337 -160)">
    <path id="Path_91052" data-name="Path 91052" d="M52.592,0a8.374,8.374,0,0,1,7.1,4.091l14.74,25.635a8.21,8.21,0,0,1,0,8.182L59.689,63.543a8.374,8.374,0,0,1-7.1,4.091H22.929a8.224,8.224,0,0,1-7.006-4.091L1.092,37.908a8.209,8.209,0,0,1,0-8.182L15.923,4.091A8.224,8.224,0,0,1,22.929,0Z" transform="translate(404.634 160) rotate(90)" fill-rule="evenodd" fill="url(#linear-gradient)"/>
    <g id="Group_122972" data-name="Group 122972" transform="translate(353 178)">
      <path id="Path_90463" data-name="Path 90463" d="M433.217,116.367a1.88,1.88,0,0,0-2.133,1.609A13.878,13.878,0,0,1,415.421,129.8l-2.428,3.375A17.668,17.668,0,0,0,434.826,118.5a1.884,1.884,0,0,0-1.609-2.133" transform="translate(-399.191 -98.374)" fill="#fff"/>
      <path id="Path_90464" data-name="Path 90464" d="M412.615,72.755a1.888,1.888,0,0,0-1.886,1.885v2.685l-1.5-1.5A17.683,17.683,0,0,0,379.6,92.721l3.237-4.488a13.892,13.892,0,0,1,23.719-9.739l1.5,1.5h-2.686a1.89,1.89,0,0,0,0,3.779h7.247a1.89,1.89,0,0,0,1.894-1.885V74.64a1.89,1.89,0,0,0-1.894-1.885" transform="translate(-378.599 -70.653)" fill="#fff"/>
      <path id="Path_90465" data-name="Path 90465" d="M420.88,90.607a1.89,1.89,0,0,0-1.89,1.89v7.933a1.89,1.89,0,0,0,1.381,1.82l5.82,1.629a1.89,1.89,0,1,0,1.019-3.64L422.771,99V92.5a1.891,1.891,0,0,0-1.891-1.89" transform="translate(-402.829 -82.759)" fill="#fff"/>
      <path id="Path_90466" data-name="Path 90466" d="M391.6,121.566H388.34l.959-7.138a1.17,1.17,0,0,0-2.108-.841l-9.066,12.569a1.169,1.169,0,0,0,.948,1.854h3.261l-.959,7.139a1.17,1.17,0,0,0,2.107.841l9.067-12.569a1.169,1.169,0,0,0-.948-1.854" transform="translate(-377.902 -96.403)" fill="#fff"/>
    </g>
  </g>
</svg>
