<svg xmlns="http://www.w3.org/2000/svg" width="120" height="120" viewBox="0 0 120 120">
  <g id="Group_110991" data-name="Group 110991" transform="translate(-827 -921)">
    <rect id="Rectangle_15753" data-name="Rectangle 15753" width="120" height="120" transform="translate(827 921)" fill="#101820"/>
    <g id="Group_109713" data-name="Group 109713" transform="translate(2155.915 2370.229)">
      <path id="Path_90510" data-name="Path 90510" d="M254.535,233.568l-2.39-7.546-30.3,4.686a1.451,1.451,0,0,0-.155.031l-.044.011c-.039.01-.077.022-.115.035l-.04.014c-.047.017-.094.037-.14.058l0,0c-.014.006-.026.014-.038.02-.038.019-.074.038-.11.059-.019.01-.035.022-.053.034s-.047.027-.069.043l-.022.017-.037.027c-.032.023-.064.049-.1.075l-.032.027-.017.014c-.009.008-.017.019-.027.028-.041.038-.081.079-.119.121-.008.009-.017.016-.026.026l-.018.023c-.041.047-.08.1-.118.149l-.015.02,0,.006-.015.022c-.025.038-.05.076-.073.116-.008.015-.016.028-.023.042a.406.406,0,0,0-.021.037c-.013.021-.022.044-.033.066s-.019.035-.026.054c-.02.04-.037.081-.053.123,0,.012-.009.023-.014.034l0,.007c-.011.031-.02.062-.029.093s-.017.05-.025.075-.017.071-.025.106-.014.067-.019.093-.01.068-.014.1-.006.041-.008.061c-.006.062-.009.124-.009.186a1.742,1.742,0,0,0,.215.86,1.569,1.569,0,0,0,.113.172,1.514,1.514,0,0,0,.133.153,1.427,1.427,0,0,0,.321.24l.519.282.333.182,11.66,5.453c0-.031,0-.061.006-.091,0-.067.01-.134.018-.2a4.332,4.332,0,0,1,3.581-3.769Z" transform="translate(-1522.034 -1626.932)" fill="#fff"/>
      <path id="Path_90511" data-name="Path 90511" d="M312.823,228.337,297.342,222.8a2.522,2.522,0,0,0-1.241-.119l-5.012.775,2.417,7.627Z" transform="translate(-1554.273 -1625.398)" fill="#fff"/>
      <path id="Path_90512" data-name="Path 90512" d="M223.1,265.065l5.683,2.625,0-4.994v-.19l0-13.589-5.648-2.61Z" transform="translate(-1523.37 -1636.152)" fill="#fff"/>
      <path id="Path_90513" data-name="Path 90513" d="M220.118,286.89c-.006.037-.01.073-.015.11s-.007.048-.009.072c-.006.061-.009.122-.009.184a1.761,1.761,0,0,0,.123.668,1.59,1.59,0,0,0,.091.192c.017.031.035.06.053.089a1.435,1.435,0,0,0,.514.477l12.513,5.917a4.39,4.39,0,0,1,1.529-3.111c.035-.031.071-.06.107-.089v-.053l-5.8-2.68-1.8-.832-5.688-2.628v0c-.051.009-.1.021-.15.034l-.038.011c-.045.014-.089.028-.133.044l-.013,0c-.038.014-.075.031-.112.047l-.022.013c-.021.01-.042.021-.062.032s-.057.031-.084.047l-.06.039c-.015.009-.031.017-.045.027l-.041.031-.038.028c-.037.029-.073.058-.108.089l-.014.012,0,0a.087.087,0,0,1-.01.01c-.05.046-.1.094-.141.143-.007.007-.014.013-.02.02a.337.337,0,0,0-.021.027c-.038.044-.073.089-.107.136l-.022.028c0,.005-.007.011-.011.017s-.015.022-.023.034c-.022.034-.044.069-.064.1-.008.013-.016.027-.023.04l-.015.026c-.014.026-.026.052-.038.079l-.025.049q-.035.076-.064.155c-.014.035-.023.07-.035.106s-.015.044-.021.067-.017.075-.025.113c0,.021-.011.043-.015.064" transform="translate(-1522 -1653.832)" fill="#fff"/>
      <path id="Path_90514" data-name="Path 90514" d="M242.332,255.172l-4.729-2.185,0,13.961,0,4.811,5.372,2.482.007-4.368.021-14.1a3.705,3.705,0,0,1-.521-.433c-.054-.053-.106-.11-.157-.166" transform="translate(-1529.962 -1639.188)" fill="#fff"/>
      <path id="Path_90515" data-name="Path 90515" d="M293.755,237.187a1.278,1.278,0,0,1-1.031,1.256.908.908,0,0,1-1.029-.966l.02-12.836a1.278,1.278,0,0,1,1.031-1.257.908.908,0,0,1,1.028.967Zm-6.461.911a1.277,1.277,0,0,1-1.031,1.256.908.908,0,0,1-1.028-.966l.019-12.837a1.278,1.278,0,0,1,1.031-1.256.908.908,0,0,1,1.029.966Zm-6.461.909a1.276,1.276,0,0,1-1.031,1.256.908.908,0,0,1-1.029-.965l.02-12.836a1.277,1.277,0,0,1,1.032-1.256.907.907,0,0,1,1.028.966Zm-6.156.911a1.277,1.277,0,0,1-1.032,1.256.908.908,0,0,1-1.028-.966l.02-12.836a1.277,1.277,0,0,1,1.03-1.257.909.909,0,0,1,1.029.967Zm-6.461.911a1.277,1.277,0,0,1-1.032,1.256.908.908,0,0,1-1.028-.966l.019-12.837a1.279,1.279,0,0,1,1.033-1.256.909.909,0,0,1,1.029.966Zm-6.461.909A1.279,1.279,0,0,1,260.725,243a.908.908,0,0,1-1.028-.967l.02-12.836a1.277,1.277,0,0,1,1.031-1.256.907.907,0,0,1,1.028.965Zm-6.461.911a1.277,1.277,0,0,1-1.032,1.256.907.907,0,0,1-1.027-.966l.019-12.836a1.276,1.276,0,0,1,1.031-1.256.908.908,0,0,1,1.029.966Zm43.171-26.336a1.486,1.486,0,0,0-1.683-1.581l-21.93,3.111-2.244.318-3.482-10.99a4.063,4.063,0,0,0-1.16-7.273l0-10.012a1.118,1.118,0,0,0-2.235,0l0,10.973a1.117,1.117,0,0,0,1.118,1.117,1.83,1.83,0,0,1,1.83,1.828,1.826,1.826,0,0,1-2.415,1.732.145.145,0,0,1-.025-.008,1.83,1.83,0,0,1-1.218-1.723,1,1,0,0,0-.013-.167,1.117,1.117,0,0,0-2.222.169,4.066,4.066,0,0,0,.088.844l-7.858,3.727,7.739-1.2,1.172-.555a4.052,4.052,0,0,0,2.924,1.244c.051,0,.1,0,.151,0l3.362,10.612-2.244.319-17.849,2.532a2.091,2.091,0,0,0-1.689,2.057,1.487,1.487,0,0,0,1.635,1.585l-.034,23.957a2.1,2.1,0,0,0-1.641,2.048,1.486,1.486,0,0,0,1.682,1.581l46.512-6.6a2.093,2.093,0,0,0,1.689-2.057,1.488,1.488,0,0,0-1.636-1.586l.035-23.957a2.1,2.1,0,0,0,1.641-2.048" transform="translate(-1534.935 -1610)" fill="#fff"/>
    </g>
  </g>
</svg>
