<svg xmlns="http://www.w3.org/2000/svg" width="67.103" height="71.53" viewBox="0 0 67.103 71.53">
  <g id="Group_110470" data-name="Group 110470" transform="translate(0.395 0.395)">
    <g id="Group_110471" data-name="Group 110471">
      <path id="Path_90848" data-name="Path 90848" d="M68.4,80.54a32.328,32.328,0,0,0,4.254-2.88L69.933,72a26.079,26.079,0,0,0,5.436-6.81l6.116,1.4a31.944,31.944,0,0,0,3.2-14.009l-6.119-1.4a25.839,25.839,0,0,0-1.935-8.5l4.9-3.91a31.943,31.943,0,0,0-8.959-11.234l-4.91,3.915a25.859,25.859,0,0,0-7.847-3.784V21.4a31.943,31.943,0,0,0-14.369,0v6.275A25.859,25.859,0,0,0,37.6,31.457l-4.91-3.915a31.945,31.945,0,0,0-8.959,11.234l4.9,3.91a25.839,25.839,0,0,0-1.935,8.5l-6.119,1.4a31.944,31.944,0,0,0,3.2,14.009l6.116-1.4A26.08,26.08,0,0,0,35.33,72L32.606,77.66a32.333,32.333,0,0,0,4.254,2.88" transform="translate(-19.474 -19.475)" fill="none" stroke="#492f91" stroke-linecap="round" stroke-linejoin="round" stroke-width="3"/>
      <path id="Path_90849" data-name="Path 90849" d="M294.567,307.332v-3.138a1.636,1.636,0,0,1,.83-1.434,18.791,18.791,0,1,0-18.235,0,1.633,1.633,0,0,1,.825,1.432v3.137" transform="translate(-253.121 -253.171)" fill="none" stroke="#492f91" stroke-linecap="round" stroke-linejoin="round" stroke-width="3"/>
      <path id="Path_90850" data-name="Path 90850" d="M406.784,1019.473h0a4.421,4.421,0,0,0,4.421,4.421h3.316a4.421,4.421,0,0,0,4.421-4.421h2.211a3.316,3.316,0,0,0,3.316-3.316v-4.421a3.316,3.316,0,0,0-3.316-3.316h-16.58a3.316,3.316,0,0,0-3.316,3.316v4.421a3.316,3.316,0,0,0,3.316,3.316h7.737" transform="translate(-379.706 -954.259)" fill="none" stroke="#492f91" stroke-linecap="round" stroke-linejoin="round" stroke-width="3"/>
      <path id="Path_90851" data-name="Path 90851" d="M415.282,402.186l2.625,5.319,5.87.853a1.571,1.571,0,0,1,.87,2.679l-4.248,4.141,1,5.847a1.571,1.571,0,0,1-2.279,1.656l-5.25-2.76-5.25,2.76a1.571,1.571,0,0,1-2.279-1.656l1-5.847-4.248-4.141a1.571,1.571,0,0,1,.871-2.679l5.87-.853,2.625-5.319A1.571,1.571,0,0,1,415.282,402.186Z" transform="translate(-380.999 -379.756)" fill="#ec519d"/>
    </g>
  </g>
</svg>
