<svg id="Group_109715" data-name="Group 109715" xmlns="http://www.w3.org/2000/svg" xmlns:xlink="http://www.w3.org/1999/xlink" width="67.508" height="57.101" viewBox="0 0 67.508 57.101">
  <defs>
    <clipPath id="clip-path">
      <rect id="Rectangle_15581" data-name="Rectangle 15581" width="67.508" height="57.101" fill="#fff"/>
    </clipPath>
  </defs>
  <g id="Group_109714" data-name="Group 109714" clip-path="url(#clip-path)">
    <path id="Path_90686" data-name="Path 90686" d="M61.024,68.687l-5.4.091-.539-1.662,1.394.15.016,0,4.884.527ZM59,73.7l-1.724.156-.726-2.238,3.312-.056Zm-8.63.779-.889-2.742,4.081-.069.8,2.451Zm-2.647-8.16,4.252.459.665,2.048L48.56,68.9ZM43.467,75.1l-1.053-3.245,4.08-.069.958,2.955ZM40.36,65.526l4.251.459.961,2.962-4.08.069Zm-3.8,10.2-1.216-3.749,4.081-.069,1.122,3.458ZM33,64.732l4.251.459L38.5,69.066l-4.081.069ZM29.656,76.35,28.276,72.1l4.081-.069,1.285,3.962ZM25.629,63.937l4.253.459,1.553,4.789-4.081.069ZM22.807,76.967l-1.615-4.751,4.1-.069,1.449,4.466Zm-2.582-7.594L18.1,63.124l4.415.476,1.85,5.7Zm47.08-10.138a1.429,1.429,0,0,0-1.072-.686l-51.58-5.566-.822-2.416a4.112,4.112,0,0,0-2.722-2.616L1.835,45.208a1.429,1.429,0,1,0-.811,2.74L10.3,50.692a1.25,1.25,0,0,1,.828.8l6.722,19.771,0,.012,2.369,6.969-1.788,2.4a5.611,5.611,0,0,0-1.025,2.386,1.442,1.442,0,0,0-.032.2,5.625,5.625,0,0,0,5.574,6.407H24a3.972,3.972,0,1,0,6.1,0H49.34a3.972,3.972,0,1,0,6.1,0h3.039a1.429,1.429,0,0,0,0-2.858H22.951a2.765,2.765,0,0,1-2.662-2H58.481a1.429,1.429,0,1,0,0-2.858H21.044l1.537-2.064,19.983-1.8.017,0,17.548-1.583a1.429,1.429,0,0,0,1.2-.889l1.992-4.941.006-.015,1.411-3.5.007-.017L67.4,60.505a1.429,1.429,0,0,0-.1-1.269" transform="translate(0 -39.053)" fill="#fff"/>
    <path id="Path_90687" data-name="Path 90687" d="M190.338,24.255a2.69,2.69,0,0,0-.848-.351.063.063,0,0,1-.048-.075l.382-1.694c.006-.024.008-.047.012-.07a1.157,1.157,0,0,0,.809-.858l.258-1.146a1.16,1.16,0,0,0-.876-1.386l-2.831-.637a1.16,1.16,0,0,0-1.386.876l-.258,1.147a1.158,1.158,0,0,0,.363,1.122c-.007.023-.014.045-.019.069l-.382,1.694a.062.062,0,0,1-.074.048,2.731,2.731,0,0,0-.6-.067,2.7,2.7,0,0,0-2.631,2.107l-.708,3.143,8.69.938a36.552,36.552,0,0,1,.144-4.859" transform="translate(-156.998 -15.577)" fill="#fff"/>
    <path id="Path_90688" data-name="Path 90688" d="M266.732,7.723l3.828-.338a1.192,1.192,0,0,1,1.291,1.081c0,.036,0,.072,0,.107a1.192,1.192,0,0,1-1.086,1.185l-3.828.338a1.192,1.192,0,0,1-1.291-1.081c0-.036,0-.071,0-.107a1.192,1.192,0,0,1,1.086-1.185m-.631,6.368a.365.365,0,0,1-.006-.047c0-.036,0-.071,0-.107a1.191,1.191,0,0,1,1.086-1.184L271,12.415a1.191,1.191,0,0,1,.6,2.269l2.409.26c.286-1.114.556-2.167.795-3.1C273.7,4.873,270.848-.244,267.979.009c-3,.265-4.948,6.288-4.616,13.786Z" transform="translate(-227.773 0)" fill="#fff"/>
    <path id="Path_90689" data-name="Path 90689" d="M365.616,25.467l6.31,1.617.134,1.126-7.1-1.82Zm-1.781,3.093,4.082,1.046L372,30.652l-.96,3.746,2.393.258,1.17-4.566v0c0-.007,0-.013,0-.02.009-.036.015-.073.02-.109,0-.014,0-.029,0-.044s0-.06.006-.09a.339.339,0,0,0,0-.047c0-.032,0-.063,0-.094,0-.009,0-.019,0-.029l-.41-3.44.478-1.867a1.191,1.191,0,0,0-.858-1.449l-7.89-2.022a1.191,1.191,0,0,0-1.449.858l-.478,1.865-2.015,2.82-.011.018c-.019.028-.038.058-.055.089l-.018.033c-.015.03-.029.059-.042.091-.006.011-.01.023-.015.035-.013.034-.025.07-.035.107,0,.008,0,.014-.007.022v0l-1.643,6.41,2.392.258Z" transform="translate(-311.55 -18.024)" fill="#fff"/>
  </g>
</svg>
