<svg xmlns="http://www.w3.org/2000/svg" width="52.113" height="58.662" viewBox="0 0 52.113 58.662">
  <g id="Group_109765" data-name="Group 109765" transform="translate(0.694 0.694)">
    <g id="Group_109766" data-name="Group 109766" transform="translate(0.806 0.807)">
      <path id="Path_90706" data-name="Path 90706" d="M28.053,24.25a7.589,7.589,0,1,1-7.591-7.591A7.59,7.59,0,0,1,28.053,24.25Z" transform="translate(4.485 6.025)" fill="#ec519d"/>
      <line id="Line_2021" data-name="Line 2021" y1="10.756" x2="11.658" transform="translate(26.651 18.084)" fill="none" stroke="#ec519d" stroke-linejoin="round" stroke-width="3"/>
      <line id="Line_2022" data-name="Line 2022" y1="3.524" x2="3.711" transform="translate(42.103 10.689)" fill="none" stroke="#492f91" stroke-linejoin="round" stroke-width="3"/>
      <circle id="Ellipse_1021" data-name="Ellipse 1021" cx="24.557" cy="24.557" r="24.557" transform="translate(0 6.548)" fill="none" stroke="#492f91" stroke-linejoin="round" stroke-width="3"/>
      <path id="Path_90707" data-name="Path 90707" d="M35.794,24.738A14.84,14.84,0,1,1,20.954,9.9" transform="translate(3.603 6.368)" fill="none" stroke="#492f91" stroke-linejoin="round" stroke-width="3"/>
      <path id="Path_90708" data-name="Path 90708" d="M10.908,7.681V3.013A2.513,2.513,0,0,1,13.419.5h8.069A2.513,2.513,0,0,1,24,3.013V7.681" transform="translate(7.106 -0.5)" fill="none" stroke="#492f91" stroke-linejoin="round" stroke-width="3"/>
      <line id="Line_2023" data-name="Line 2023" x2="5.21" y2="5.452" transform="translate(43.092 8.055)" fill="none" stroke="#492f91" stroke-linejoin="round" stroke-width="3"/>
      <line id="Line_2024" data-name="Line 2024" x1="3.711" y1="3.524" transform="translate(2.489 10.689)" fill="none" stroke="#492f91" stroke-linejoin="round" stroke-width="3"/>
      <line id="Line_2025" data-name="Line 2025" x1="5.21" y2="5.452" transform="translate(0.001 8.055)" fill="none" stroke="#492f91" stroke-linejoin="round" stroke-width="3"/>
    </g>
  </g>
</svg>
