<svg xmlns="http://www.w3.org/2000/svg" width="63.702" height="58.595" viewBox="0 0 63.702 58.595">
  <g id="Group_109768" data-name="Group 109768" transform="translate(0.413 0.413)">
    <g id="Group_109769" data-name="Group 109769" transform="translate(0 0)">
      <circle id="Ellipse_1022" data-name="Ellipse 1022" cx="12.21" cy="12.21" r="12.21" transform="translate(38.869 31.322)" fill="#ec519d"/>
      <path id="Path_90709" data-name="Path 90709" d="M5.979,23.22a2.591,2.591,0,1,0-2.593-2.593A2.593,2.593,0,0,0,5.979,23.22Z" transform="translate(1.521 8.103)" fill="none" stroke="#492f91" stroke-linecap="round" stroke-linejoin="round" stroke-width="3"/>
      <path id="Path_90710" data-name="Path 90710" d="M32.216,26.271H18.456a9.217,9.217,0,1,1,.023-7.122h3.929l2.512,1.464,2.393-1.648,2.509,1.467,1.088-.748,1.307-.9" transform="translate(0.337 6.049)" fill="none" stroke="#492f91" stroke-linecap="round" stroke-linejoin="round" stroke-width="3"/>
      <line id="Line_2026" data-name="Line 2026" y1="13.284" transform="translate(32.553 21.874)" fill="none" stroke="#492f91" stroke-linecap="round" stroke-linejoin="round" stroke-width="3"/>
      <path id="Path_90711" data-name="Path 90711" d="M8.9,29.01c6.5,11.756,19.748,14.639,19.748,14.639a31.041,31.041,0,0,0,6.222-2.294" transform="translate(3.999 13.033)" fill="none" stroke="#492f91" stroke-linecap="round" stroke-linejoin="round" stroke-width="3"/>
      <path id="Path_90712" data-name="Path 90712" d="M52.982,27.247V8.072A41.354,41.354,0,0,1,29.735.75,41.358,41.358,0,0,1,6.484,8.072v6.8" transform="translate(2.913 0.336)" fill="none" stroke="#492f91" stroke-linecap="round" stroke-linejoin="round" stroke-width="3"/>
      <line id="Line_2027" data-name="Line 2027" x2="3.994" y2="3.994" transform="translate(45.723 43.532)" fill="none" stroke="#fff" stroke-linecap="round" stroke-linejoin="round" stroke-width="3"/>
      <line id="Line_2028" data-name="Line 2028" x1="6.59" y2="6.591" transform="translate(49.718 40.936)" fill="none" stroke="#fff" stroke-linecap="round" stroke-linejoin="round" stroke-width="3"/>
    </g>
  </g>
</svg>
