<svg xmlns="http://www.w3.org/2000/svg" width="63.013" height="63.007" viewBox="0 0 63.013 63.007">
  <g id="Group_110473" data-name="Group 110473" transform="translate(0.622 0.624)">
    <g id="Group_110474" data-name="Group 110474" transform="translate(0.878 0.876)">
      <ellipse id="Ellipse_1070" data-name="Ellipse 1070" cx="30.007" cy="30.003" rx="30.007" ry="30.003" transform="translate(0 0)" fill="none" stroke="#492f91" stroke-linecap="round" stroke-linejoin="round" stroke-width="3"/>
      <path id="Path_90852" data-name="Path 90852" d="M372.335,692.241c-1.842,13.063-8.47,22.745-16.455,22.745-9.406,0-17.031-13.433-17.031-30,0-.979.04-1.948.092-2.9" transform="translate(-325.873 -654.979)" fill="none" stroke="#492f91" stroke-linecap="round" stroke-linejoin="round" stroke-width="3"/>
      <path id="Path_90853" data-name="Path 90853" d="M458.687,32.23c3.078-5.384,7.419-8.711,12.1-8.711,7.173,0,13.462,7.813,15.971,18.873" transform="translate(-440.78 -23.519)" fill="none" stroke="#492f91" stroke-linecap="round" stroke-linejoin="round" stroke-width="3"/>
      <line id="Line_2082" data-name="Line 2082" y2="5.323" transform="translate(30.007 54.684)" fill="none" stroke="#492f91" stroke-linecap="round" stroke-linejoin="round" stroke-width="3"/>
      <line id="Line_2083" data-name="Line 2083" y2="36.294" transform="translate(30.007)" fill="none" stroke="#492f91" stroke-linecap="round" stroke-linejoin="round" stroke-width="3"/>
      <line id="Line_2084" data-name="Line 2084" x2="3.388" transform="translate(56.625 30.003)" fill="none" stroke="#492f91" stroke-linecap="round" stroke-linejoin="round" stroke-width="3"/>
      <line id="Line_2085" data-name="Line 2085" x2="38.234" transform="translate(0 30.003)" fill="none" stroke="#492f91" stroke-linecap="round" stroke-linejoin="round" stroke-width="3"/>
      <ellipse id="Ellipse_1071" data-name="Ellipse 1071" cx="6.426" cy="6.426" rx="6.426" ry="6.426" transform="translate(9.061 11.48)" fill="#ec519d"/>
      <ellipse id="Ellipse_1072" data-name="Ellipse 1072" cx="6.426" cy="6.426" rx="6.426" ry="6.426" transform="translate(41.004 21.642)" fill="#ec519d"/>
      <ellipse id="Ellipse_1073" data-name="Ellipse 1073" cx="6.426" cy="6.426" rx="6.426" ry="6.426" transform="translate(22.612 39.063)" fill="#ec519d"/>
    </g>
  </g>
</svg>
